<?xml version="1.0" standalone="no"?>
<!DOCTYPE svg PUBLIC "-//W3C//DTD SVG 20010904//EN"
 "http://www.w3.org/TR/2001/REC-SVG-20010904/DTD/svg10.dtd">
<svg version="1.0" xmlns="http://www.w3.org/2000/svg"
 width="1280.000000pt" height="640.000000pt" viewBox="0 0 1280.000000 640.000000"
 preserveAspectRatio="xMidYMid meet">
<g transform="translate(0.000000,640.000000) scale(0.100000,-0.100000)"
fill="#000000" stroke="none">
<path d="M9527 5369 c-19 -35 -72 -134 -117 -219 -501 -940 -894 -1584 -1059
-1732 -44 -39 -58 -46 -108 -52 -53 -6 -402 7 -518 19 -341 35 -498 55 -899
110 -866 121 -1273 166 -1816 201 -233 16 -500 -63 -730 -213 -164 -108 -373
-306 -537 -509 -69 -86 -87 -102 -124 -113 -95 -28 -464 -167 -629 -238 -604
-257 -937 -516 -957 -743 -5 -54 -3 -64 36 -137 24 -43 49 -85 57 -93 14 -13
15 -10 9 30 -13 95 55 232 153 307 145 110 457 96 711 -32 146 -73 227 -185
238 -326 12 -173 -78 -270 -289 -313 -42 -9 -109 -16 -148 -16 -42 0 -70 -4
-70 -10 0 -15 152 -84 288 -130 386 -134 948 -202 1542 -187 455 12 876 96
1444 287 l120 40 245 -10 c135 -6 496 -19 801 -30 305 -11 796 -29 1090 -40
294 -11 785 -29 1090 -40 305 -11 674 -25 820 -30 146 -6 504 -19 795 -30 292
-10 584 -22 650 -25 582 -26 596 -26 651 -10 29 8 93 42 141 74 85 57 278 217
337 279 l28 30 -43 6 c-24 3 -78 8 -119 11 -82 6 -681 52 -1880 145 -426 33
-890 69 -1030 80 -140 11 -574 45 -963 75 -390 30 -713 55 -718 55 -5 0 -9 6
-9 13 0 6 55 40 123 74 155 79 348 189 457 261 102 68 626 514 817 696 17 16
43 95 107 324 47 167 90 309 95 316 8 9 33 12 83 9 166 -9 1205 -44 1624 -55
l451 -12 50 32 c50 32 90 69 82 76 -2 2 -166 20 -364 40 -198 20 -673 68
-1055 106 -382 38 -710 72 -727 75 -27 5 -33 11 -33 30 0 13 72 360 161 771
88 410 158 751 156 758 -3 6 -54 24 -113 40 -82 22 -141 30 -235 34 l-127 5
-35 -64z m-4527 -1894 c201 -31 599 -131 628 -159 10 -10 3 -87 -38 -412 -56
-443 -56 -444 -71 -444 -6 0 -52 18 -102 41 -244 110 -520 207 -752 264 -137
34 -396 68 -720 95 -71 6 -134 15 -139 20 -17 17 233 314 360 426 183 162 288
197 574 189 85 -3 202 -12 260 -20z m1218 -229 c139 -18 257 -37 262 -42 6 -6
43 -149 84 -319 55 -232 71 -313 62 -322 -12 -12 -420 -75 -440 -67 -13 5
-268 763 -260 776 7 11 9 11 292 -26z m-429 -18 c28 -87 201 -732 201 -748 0
-10 -4 -21 -9 -25 -6 -3 -73 -15 -151 -27 -108 -17 -143 -20 -149 -10 -5 8 70
817 78 840 5 12 21 -4 30 -30z"/>
<path d="M6771 3944 c-96 -28 -127 -43 -115 -54 21 -18 1695 -226 1762 -218
20 2 42 25 94 97 37 52 66 96 65 98 -2 1 -199 14 -438 28 -239 14 -623 37
-853 50 -231 14 -422 25 -425 24 -3 0 -44 -11 -90 -25z"/>
<path d="M770 3564 c-19 -2 -98 -8 -175 -14 -291 -22 -489 -55 -558 -93 l-38
-21 23 -22 c13 -12 268 -158 568 -324 300 -167 763 -427 1029 -578 266 -151
491 -277 501 -279 12 -3 60 27 142 91 68 53 159 121 203 150 83 55 308 161
516 244 66 25 119 50 119 53 0 8 138 -43 -1091 410 -1057 389 -1057 389 -1130
387 -41 0 -90 -3 -109 -4z"/>
<path d="M2500 1843 c-187 -31 -290 -148 -290 -329 0 -53 4 -67 26 -93 44 -53
109 -65 309 -58 186 7 281 23 363 63 73 36 95 72 88 144 -10 115 -46 176 -131
226 -74 43 -252 66 -365 47z"/>
</g>
</svg>
